<svg xmlns="http://www.w3.org/2000/svg" viewBox="0 0 80.21 128.335"><defs><style>.a{fill:#060e15;}.b{fill:#102e46;}</style></defs><g transform="translate(-147.395 -269.332)"><path class="a" d="M3-16V112.335l40.1-40.1,40.1,40.1V-16Z" transform="translate(144.395 285.332)"/><g transform="translate(167.962 289.211)"><path class="b" d="M8.819,28.95a30.757,30.757,0,0,1-4.1,0,4.431,4.431,0,0,1-3.459-2.731A15.574,15.574,0,0,1-.1,20.485a18.472,18.472,0,0,1,.637-5.917,6.087,6.087,0,0,1,6.19-4.551H19.2V8.833H9.911C10,6.921,10,5.01,10.275,3.189A2.944,2.944,0,0,1,12.551,1a32.616,32.616,0,0,1,4.1-.819,24.593,24.593,0,0,1,7.737.364A5.073,5.073,0,0,1,28.663,5.92V13.84a4.921,4.921,0,0,1-5.189,5.189c-2.822-.091-5.644,0-8.466,0a5.973,5.973,0,0,0-6.281,6.281C8.819,26.492,8.819,27.676,8.819,28.95ZM14.1,2.916a1.73,1.73,0,1,0,0,3.459,1.79,1.79,0,0,0,1.73-1.73,1.674,1.674,0,0,0-1.73-1.73Z" transform="translate(0.125 -0.036)"/><path class="b" d="M30.953,11.193a30.756,30.756,0,0,1,4.1,0,4.431,4.431,0,0,1,3.459,2.731,15.574,15.574,0,0,1,1.365,5.735,18.472,18.472,0,0,1-.637,5.917,5.85,5.85,0,0,1-6.1,4.551H20.667v1.092h9.376a39.528,39.528,0,0,1-.455,5.735,2.944,2.944,0,0,1-2.276,2.185,32.616,32.616,0,0,1-4.1.819,24.593,24.593,0,0,1-7.737-.364A5.073,5.073,0,0,1,11.2,34.223V26.3a4.921,4.921,0,0,1,5.189-5.189c2.822.091,5.644,0,8.466,0a5.973,5.973,0,0,0,6.281-6.281A23.212,23.212,0,0,1,30.953,11.193Zm-5.28,26.034a1.73,1.73,0,1,0-1.73-1.73A1.672,1.672,0,0,0,25.673,37.227Z" transform="translate(-0.891 -1.031)"/></g></g></svg>